PathFileType	4	(X/Y/Z)	S01_0016_Gait_markers.trc
DataRate	CameraRate	NumFrames	NumMarkers	Units	OrigDataRate	OrigDataStartFrame	OrigNumFrames
250.000000	250.000000	4	54	mm	250.000000	133	356
Frame#	Time	HEAD_ANT			R_HEAD			L_HEAD			C7			R_BACK			L_BACK			STERNUM			R_ACROMION			R_HUM_PROX			R_HUM_ANT			R_HUM_POST			R_ELBOW_LAT			R_ELBOW_MED			R_FOREARM			R_WIRST_LAT			R_WRITS_MED			R_HAND			L_ACROMION			L_HUM_PROX			L_HUM_ANT			L_HUM_POST			L_ELBOW_LAT			L_ELBOW_MED			L_FOREARM			L_WRIST_LAT			L_WIRST_MED			L_HAND			R_ILIAC			SACRUM			L_ILIAC			R_GTROCH			R_THIGH__1			R_THIGH_2			R_THIGH_3			R_THIGH_4			R_SHANK_1			R_SHANK_2			R_SHANK_3			R_SHANK_4			R_HEEL			R_FOOT_LAT			R_FOOT_MED			L_GTROCH			L_THIGH_1			L_THIGH_2			L_THIGH_3			L_THIGH_4			L_SHANK_1			L_SHANK_2			L_SHANK_3			L_SHANK_4			L_HEEL			L_FOOT_LAT			L_FOOT_MED			
		X1	Y1	Z1	X2	Y2	Z2	X3	Y3	Z3	X4	Y4	Z4	X5	Y5	Z5	X6	Y6	Z6	X7	Y7	Z7	X8	Y8	Z8	X9	Y9	Z9	X10	Y10	Z10	X11	Y11	Z11	X12	Y12	Z12	X13	Y13	Z13	X14	Y14	Z14	X15	Y15	Z15	X16	Y16	Z16	X17	Y17	Z17	X18	Y18	Z18	X19	Y19	Z19	X20	Y20	Z20	X21	Y21	Z21	X22	Y22	Z22	X23	Y23	Z23	X24	Y24	Z24	X25	Y25	Z25	X26	Y26	Z26	X27	Y27	Z27	X28	Y28	Z28	X29	Y29	Z29	X30	Y30	Z30	X31	Y31	Z31	X32	Y32	Z32	X33	Y33	Z33	X34	Y34	Z34	X35	Y35	Z35	X36	Y36	Z36	X37	Y37	Z37	X38	Y38	Z38	X39	Y39	Z39	X40	Y40	Z40	X41	Y41	Z41	X42	Y42	Z42	X43	Y43	Z43	X44	Y44	Z44	X45	Y45	Z45	X46	Y46	Z46	X47	Y47	Z47	X48	Y48	Z48	X49	Y49	Z49	X50	Y50	Z50	X51	Y51	Z51	X52	Y52	Z52	X53	Y53	Z53	X54	Y54	Z54	

134	0.532	760.996337890625	1750.68115234375	-303.0392761230465	705.7379150390625	1697.860473632812	-224.3786315917965	701.3724975585938	1702.18994140625	-372.3044433593746	565.79541015625	1531.060546875	-296.5922546386715	493.876953125	1336.123168945312	-225.6849517822263	485.2050170898438	1340.74072265625	-369.1826171874997	739.9384765625	1366.94287109375	-307.5178222656247	648.634033203125	1482.517700195312	-131.1239624023434	621.2213134765625	1322.923950195312	-38.46602249145479	685.7247314453125	1239.208862304688	-43.41048812866183	565.9659423828125	1237.272705078125	-20.2966117858884	618.5114135742188	1132.307250976562	-20.93337631225561	584.4221801757812	1127.868286132812	-97.9352188110349	749.7410888671875	969.8297729492188	-48.10428237915018	794.8788452148438	915.5696411132812	-97.25312805175761	737.5770263671875	876.8875122070312	-52.72146606445293	822.5062255859375	827.6878051757812	-51.3026809692381	634.0668334960938	1487.525390625	-468.0044250488278	597.0283203125	1326.213012695313	-567.6858520507809	655.5667114257812	1243.39404296875	-577.5705566406248	531.8008422851562	1251.94873046875	-590.732971191406	587.6824340820312	1145.507568359375	-608.135559082031	538.1138916015625	1139.755981445313	-547.818420410156	692.0404663085938	970.4398193359376	-604.8620605468748	730.5048217773438	909.0992431640626	-557.377258300781	678.83740234375	888.8607177734376	-616.6168212890623	754.9409790039062	830.5755004882814	-608.080383300781	629.70361328125	1080.508666992188	-137.9900665283201	499.9180908203125	1056.583984375	-308.8405151367185	619.9508056640625	1081.211181640625	-481.903869628906	571.0806884765625	936.6713256835938	-128.1471252441404	566.7281494140625	658.35107421875	-161.5897369384764	625.1015014648438	665.682861328125	-154.3702697753905	614.9984130859375	566.4790649414062	-194.9931793212889	552.183349609375	580.318603515625	-186.6461944580077	497.9713134765625	353.2643127441407	-200.1047210693359	550.3013916015625	327.2435607910157	-214.5491790771484	535.8651733398438	245.4286499023438	-238.5663757324218	473.7069702148438	258.8558959960938	-230.1094512939453	411.5556945800781	61.32891845703132	-328.8834838867188	567.5902709960938	18.14837837219244	-238.0931854248047	627.5029296875	32.92878341674812	-334.8013916015625	596.4097290039062	965.6292724609376	-492.2958374023435	783.6145629882812	712.6701049804689	-490.0923767089842	727.6229248046875	713.6132202148439	-509.2311096191405	746.807373046875	610.4360961914064	-486.521759033203	805.7919921875	634.4140014648439	-473.7482299804686	749.7715454101562	354.7252502441407	-478.3459777832031	689.635009765625	347.5043945312501	-481.3243713378906	666.3533935546875	264.7009277343751	-466.1182861328124	729.1988525390625	255.6244049072267	-457.0985107421874	583.5897827148438	88.53263092041024	-392.9927062988281	749.5371704101562	34.58158493042003	-464.5384826660156	788.647705078125	40.74473571777352	-371.9853515625	
135	0.536	766.4859008789062	1750.061645507812	-303.2627563476559	711.140869140625	1697.491577148438	-224.4180450439449	706.7877807617188	1701.506958007812	-372.2461547851559	571.0823974609375	1530.588623046875	-296.4909362792965	499.2183837890625	1335.758544921875	-225.5861968994138	490.3168640136719	1340.261962890625	-368.6131896972653	745.1068115234375	1366.404663085938	-307.7523193359372	654.0453491210938	1481.9755859375	-130.8949737548825	626.8404541015625	1322.446411132812	-38.30109024047822	691.5643920898438	1238.874755859375	-43.24954986572238	571.8372802734375	1236.749389648438	-20.01946258544895	624.6981201171875	1131.83984375	-20.60170173644994	590.302978515625	1127.650268554688	-97.49348449707006	756.312255859375	969.9945068359375	-48.21019363403299	801.416015625	915.7852783203125	-97.53338623046855	744.7413330078125	876.9710083007812	-52.77643203735332	830.060302734375	828.2839965820312	-51.52314758300763	639.3319091796875	1487.077270507812	-467.946136474609	601.8309936523438	1325.786987304688	-567.4889526367184	660.2151489257812	1242.914672851563	-577.620666503906	536.4888305664062	1251.631225585938	-590.3072509765623	589.7192993164062	1146.113647460938	-608.7756347656248	542.9304809570312	1139.293823242188	-547.3646240234373	696.87744140625	970.0551147460939	-604.7927246093748	735.2407836914062	908.7695922851564	-557.429504394531	683.41748046875	888.3222656250001	-616.2218627929685	759.712646484375	830.3230590820314	-608.0177001953123	633.8147583007812	1079.925048828125	-137.7506866455076	505.0575866699219	1056.117431640625	-309.2213134765623	625.060302734375	1080.604736328125	-481.8577575683591	575.462158203125	936.58544921875	-128.155807495117	569.389404296875	658.5908813476562	-161.2841033935545	627.6442260742188	665.55615234375	-154.4867248535155	617.3123779296875	565.8065795898438	-194.4098968505858	554.4466552734375	580.8377685546875	-186.3498077392577	498.8817749023438	353.6322937011719	-200.1327209472655	551.162841796875	327.3232421875001	-214.2366638183593	536.65478515625	245.6526489257813	-238.2021484374999	474.4299621582031	259.4277343750001	-230.0470275878906	411.7736511230469	61.90147018432624	-329.0294494628906	567.5521240234375	18.14493370056158	-238.1222381591797	627.5523071289062	32.9331245422364	-334.6571960449219	601.8754272460938	965.1699218750001	-492.4481201171873	789.4451904296875	712.5685424804689	-489.3789062499998	733.1843872070312	713.2375488281251	-508.9071960449217	752.3731689453125	610.2954711914064	-485.6955566406249	811.6903076171875	634.5171508789064	-472.7967224121093	760.0636596679688	353.8399353027345	-477.5858154296874	700.2907104492188	345.4439392089845	-480.5791625976562	678.6422729492188	261.9814758300782	-465.2463684082031	741.8511962890625	254.448211669922	-456.3693237304687	600.349609375	83.73307800292977	-392.3084716796875	767.8853759765625	33.93618774414072	-463.4785766601562	806.5531005859375	41.00358963012704	-370.9215087890625	
136	0.54	771.9479370117188	1749.451416015625	-303.3546752929684	716.5717163085938	1697.080200195312	-224.4345703124996	711.8871459960938	1700.904663085938	-372.3096008300777	576.4404296875	1530.089233398438	-296.4338989257809	504.4556274414062	1335.13916015625	-225.8287506103513	495.4960327148438	1339.715698242188	-368.2009277343747	750.3429565429688	1365.755004882812	-307.9413757324216	659.4091796875	1481.498779296875	-130.7428894042965	632.602294921875	1321.991943359375	-38.04212188720674	697.3618774414062	1238.5771484375	-43.11891555786105	577.7726440429688	1236.21337890625	-19.6436634063718	630.81005859375	1131.227783203125	-20.42213058471654	596.0299072265625	1126.771484375	-97.11646270751928	763.00146484375	970.0935668945312	-48.24059295654276	807.9368286132812	915.9655151367188	-97.83461761474589	751.8416748046875	877.1276245117188	-52.7407455444334	837.51025390625	828.785888671875	-51.80221176147442	644.4691772460938	1486.587524414062	-467.8350219726559	606.84130859375	1325.283203125	-567.2879028320309	665.0360717773438	1242.403564453125	-577.570129394531	541.4641723632812	1251.057739257813	-590.1364135742185	596.793701171875	1144.602783203125	-607.700256347656	547.4359130859375	1138.836181640625	-547.111145019531	701.7811889648438	969.6411132812501	-604.4635009765623	739.8562622070312	908.3424072265626	-557.246398925781	688.1073608398438	887.9700317382814	-615.9960327148435	764.324951171875	829.8028564453126	-607.9325561523435	638.7095336914062	1079.654174804688	-137.7031402587888	510.0518188476562	1055.613159179688	-309.3097534179685	630.052978515625	1080.028564453125	-481.8509521484373	579.9431762695312	936.4341430664062	-128.1815490722654	572.1390380859375	658.7601318359375	-161.1441802978514	630.3646850585938	665.2401733398438	-154.4493408203124	619.5723876953125	565.722900390625	-194.0122070312499	556.6329956054688	581.0555419921875	-186.2008514404295	499.833251953125	354.0906677246094	-199.8867797851562	552.0340576171875	327.4559326171876	-214.0615997314452	537.51025390625	245.9591674804688	-238.1126556396484	475.1524658203125	260.0237731933594	-229.7939300537109	412.0346374511719	62.44268035888679	-329.1484680175781	567.5128173828125	18.1151847839356	-238.1897583007812	627.6679077148438	32.98511123657234	-334.5489501953125	607.3397216796875	964.4824218750001	-492.3635253906248	795.3201293945312	712.2045288085939	-489.9461059570311	739.052978515625	712.2199096679689	-508.7357788085936	758.3128662109375	609.8206787109376	-484.8916015624999	817.3228149414062	634.1607055664064	-471.6361999511718	770.3976440429688	353.1741027832032	-476.5680236816406	710.6578979492188	343.3034973144532	-479.7482299804687	691.1731567382812	259.2156982421876	-464.5372009277343	754.5836791992188	253.2895507812501	-455.7337951660156	617.4873657226562	79.02438354492196	-391.6306762695312	786.1600341796875	33.1419792175294	-462.7463989257812	824.5354614257812	41.40354537963876	-370.0740661621094	
137	0.544	777.39306640625	1748.806274414062	-303.3854370117184	722.05712890625	1696.43408203125	-224.5407409667965	717.4546508789062	1700.219360351562	-372.380706787109	581.8107299804688	1529.587036132812	-296.3832702636715	509.8379516601562	1334.769653320312	-225.9028015136716	500.7852172851562	1339.190063476562	-367.911193847656	755.5845336914062	1364.946655273438	-307.8376770019528	664.8494873046875	1481.038452148438	-130.8515319824215	638.3602294921875	1321.4853515625	-37.99029159545869	703.2095947265625	1238.193481445312	-43.27210617065402	583.7440795898438	1235.596801757812	-19.37762069702121	636.7783813476562	1130.879760742188	-19.9462337493894	602.0316772460938	1126.14892578125	-96.79832458496068	769.87255859375	970.1954345703125	-48.28167724609354	814.4854125976562	916.2316284179688	-97.91578674316386	759.0022583007812	877.1715087890625	-52.72019195556621	844.8441162109375	829.1551513671875	-52.11322402954083	649.57373046875	1486.00537109375	-467.8990783691403	611.558349609375	1324.679931640625	-567.1510620117184	669.87939453125	1241.65625	-577.1620483398435	546.1127319335938	1250.705200195313	-590.1154785156248	601.3890991210938	1144.072875976563	-607.6855468749998	552.2732543945312	1138.283935546875	-546.8778686523435	705.976318359375	968.9031982421876	-604.5343627929685	744.7976684570312	907.8423461914064	-556.9641113281248	692.7584838867188	887.0601196289064	-615.050598144531	769.1744995117188	829.7394409179689	-608.4108276367185	642.3538208007812	1079.098266601562	-137.5745391845701	515.2482299804688	1055.070678710938	-309.6402282714841	635.3322143554688	1079.379028320312	-481.7119140624998	584.4179077148438	936.2740478515625	-128.2608184814451	574.8779296875	658.9037475585938	-161.0953216552733	633.1153564453125	665.1337890625	-154.125762939453	621.6302490234375	565.5648803710938	-193.9373779296874	558.9234008789062	581.2550048828125	-186.108428955078	500.7264099121094	354.5326538085938	-199.8221130371093	552.9251708984375	327.6492004394532	-213.8084564208984	538.1145629882812	246.1955108642579	-238.050796508789	475.7568664550781	260.3489990234376	-229.7948913574218	412.2530517578125	62.99886322021491	-329.3609619140625	567.4774169921875	18.14840316772466	-238.2337341308594	627.7785034179688	32.99182128906257	-334.4432678222656	612.6729125976562	963.9721679687501	-492.2726745605466	800.58984375	711.9248657226564	-487.9350280761717	744.4365234375	711.9318847656251	-507.6957092285155	764.3486328125	609.4497680664064	-484.1346740722655	822.9332275390625	633.7055664062501	-470.7476196289061	780.7034301757812	352.6563110351564	-475.7694396972656	721.0182495117188	341.2316284179689	-478.8861694335937	703.6646728515625	256.6889953613282	-463.9056396484374	767.1707153320312	252.2612762451173	-454.7629699707031	634.4144287109375	74.33518981933602	-391.1123962402344	804.4410400390625	32.80045318603526	-461.7589721679688	842.4551391601562	41.76699066162118	-369.2276000976562	
